<svg version="1.0" xmlns="http://www.w3.org/2000/svg" width="384" height="384" viewBox="0 0 288 288"><path d="M126 25.5c0 1.2-1.5 1.5-7.5 1.5s-7.5.3-7.5 1.5c0 1.1-1.2 1.5-4.5 1.5s-4.5.4-4.5 1.5c0 1-1 1.5-3 1.5s-3 .5-3 1.5c0 1.1-1.2 1.5-4.5 1.5s-4.5.4-4.5 1.5c0 .8-.7 1.5-1.5 1.5s-1.5.7-1.5 1.5c0 1-1 1.5-3 1.5s-3 .5-3 1.5c0 .8-.7 1.5-1.5 1.5s-1.5.7-1.5 1.5c0 1-1 1.5-3 1.5s-3 .5-3 1.5c0 .8-.7 1.5-1.5 1.5s-1.5.7-1.5 1.5-.7 1.5-1.5 1.5-1.5.7-1.5 1.5-.7 1.5-1.5 1.5-1.5.7-1.5 1.5-.7 1.5-1.5 1.5-1.5.7-1.5 1.5-.7 1.5-1.5 1.5-1.5.7-1.5 1.5-.7 1.5-1.5 1.5-1.5.7-1.5 1.5-.7 1.5-1.5 1.5c-1 0-1.5 1-1.5 3s-.5 3-1.5 3c-.8 0-1.5.7-1.5 1.5s-.7 1.5-1.5 1.5c-1 0-1.5 1-1.5 3s-.5 3-1.5 3c-.8 0-1.5.7-1.5 1.5s-.7 1.5-1.5 1.5c-1.1 0-1.5 1.2-1.5 4.5s-.4 4.5-1.5 4.5c-1 0-1.5 1-1.5 3s-.5 3-1.5 3c-1.1 0-1.5 1.2-1.5 4.5s-.4 4.5-1.5 4.5c-1.2 0-1.5 1.5-1.5 7.5s-.3 7.5-1.5 7.5c-1.3 0-1.5 2.7-1.5 18s.2 18 1.5 18c1.2 0 1.5 1.5 1.5 7.5s.3 7.5 1.5 7.5c1.1 0 1.5 1.2 1.5 4.5s.4 4.5 1.5 4.5c1 0 1.5 1 1.5 3s.5 3 1.5 3 1.5 1 1.5 3 .5 3 1.5 3 1.5 1 1.5 3 .5 3 1.5 3 1.5 1 1.5 3 .5 3 1.5 3c.8 0 1.5.7 1.5 1.5s.7 1.5 1.5 1.5c1 0 1.5 1 1.5 3s.5 3 1.5 3c.8 0 1.5.7 1.5 1.5s.7 1.5 1.5 1.5 1.5.7 1.5 1.5.7 1.5 1.5 1.5 1.5.7 1.5 1.5.7 1.5 1.5 1.5 1.5.7 1.5 1.5.7 1.5 1.5 1.5 1.5.7 1.5 1.5.7 1.5 1.5 1.5 1.5.7 1.5 1.5c0 1 1 1.5 3 1.5s3 .5 3 1.5c0 .8.7 1.5 1.5 1.5s1.5.7 1.5 1.5.7 1.5 1.5 1.5 1.5.7 1.5 1.5c0 1 1 1.5 3 1.5s3 .5 3 1.5 1 1.5 3 1.5 3 .5 3 1.5 1 1.5 3 1.5 3 .5 3 1.5 1 1.5 3 1.5 3 .5 3 1.5c0 1.1 1.2 1.5 4.5 1.5s4.5.4 4.5 1.5c0 1.2 1.5 1.5 7.5 1.5s7.5.3 7.5 1.5c0 1.3 2.7 1.5 18 1.5s18-.2 18-1.5c0-1.2 1.5-1.5 7.5-1.5s7.5-.3 7.5-1.5c0-1.1 1.2-1.5 4.5-1.5s4.5-.4 4.5-1.5c0-1 1-1.5 3-1.5s3-.5 3-1.5 1-1.5 3-1.5 3-.5 3-1.5 1-1.5 3-1.5 3-.5 3-1.5 1-1.5 3-1.5 3-.5 3-1.5c0-.8.7-1.5 1.5-1.5s1.5-.7 1.5-1.5c0-1 1-1.5 3-1.5s3-.5 3-1.5c0-.8.7-1.5 1.5-1.5s1.5-.7 1.5-1.5.7-1.5 1.5-1.5 1.5-.7 1.5-1.5.7-1.5 1.5-1.5 1.5-.7 1.5-1.5.7-1.5 1.5-1.5 1.5-.7 1.5-1.5.7-1.5 1.5-1.5 1.5-.7 1.5-1.5.7-1.5 1.5-1.5 1.5-.7 1.5-1.5.7-1.5 1.5-1.5c1 0 1.5-1 1.5-3s.5-3 1.5-3c.8 0 1.5-.7 1.5-1.5s.7-1.5 1.5-1.5c1 0 1.5-1 1.5-3s.5-3 1.5-3 1.5-1 1.5-3 .5-3 1.5-3 1.5-1 1.5-3 .5-3 1.5-3 1.5-1 1.5-3 .5-3 1.5-3c1.1 0 1.5-1.2 1.5-4.5s.4-4.5 1.5-4.5c1.2 0 1.5-1.5 1.5-7.5s.3-7.5 1.5-7.5c1.3 0 1.5-2.7 1.5-18s-.2-18-1.5-18c-1.2 0-1.5-1.5-1.5-7.5s-.3-7.5-1.5-7.5c-1.1 0-1.5-1.2-1.5-4.5s-.4-4.5-1.5-4.5c-1 0-1.5-1-1.5-3s-.5-3-1.5-3c-1.1 0-1.5-1.2-1.5-4.5s-.4-4.5-1.5-4.5c-.8 0-1.5-.7-1.5-1.5s-.7-1.5-1.5-1.5c-1 0-1.5-1-1.5-3s-.5-3-1.5-3c-.8 0-1.5-.7-1.5-1.5s-.7-1.5-1.5-1.5c-1 0-1.5-1-1.5-3s-.5-3-1.5-3c-.8 0-1.5-.7-1.5-1.5s-.7-1.5-1.5-1.5-1.5-.7-1.5-1.5-.7-1.5-1.5-1.5-1.5-.7-1.5-1.5-.7-1.5-1.5-1.5-1.5-.7-1.5-1.5-.7-1.5-1.5-1.5-1.5-.7-1.5-1.5-.7-1.5-1.5-1.5-1.5-.7-1.5-1.5-.7-1.5-1.5-1.5-1.5-.7-1.5-1.5c0-1-1-1.5-3-1.5s-3-.5-3-1.5c0-.8-.7-1.5-1.5-1.5s-1.5-.7-1.5-1.5c0-1-1-1.5-3-1.5s-3-.5-3-1.5c0-.8-.7-1.5-1.5-1.5s-1.5-.7-1.5-1.5c0-1.1-1.2-1.5-4.5-1.5s-4.5-.4-4.5-1.5c0-1-1-1.5-3-1.5s-3-.5-3-1.5c0-1.1-1.2-1.5-4.5-1.5s-4.5-.4-4.5-1.5c0-1.2-1.5-1.5-7.5-1.5s-7.5-.3-7.5-1.5c0-1.3-2.7-1.5-18-1.5s-18 .2-18 1.5zm27 12c0 1.2 1.7 1.5 9 1.5s9 .3 9 1.5c0 1 1 1.5 3 1.5s3 .5 3 1.5c0 .8.7 1.5 1.5 1.5s1.5.7 1.5 1.5-.7 1.5-1.5 1.5c-1 0-1.5 1-1.5 3s-.5 3-1.5 3-1.5 1-1.5 3-.5 3-1.5 3c-.8 0-1.5.7-1.5 1.5s-.7 1.5-1.5 1.5-1.5.7-1.5 1.5-.7 1.5-1.5 1.5-1.5.7-1.5 1.5-.7 1.5-1.5 1.5-1.5.7-1.5 1.5c0 1-1 1.5-3 1.5s-3 .5-3 1.5c0 .8-.7 1.5-1.5 1.5s-1.5.7-1.5 1.5-.7 1.5-1.5 1.5-1.5.7-1.5 1.5c0 1-1 1.5-3 1.5s-3 .5-3 1.5c0 .8-.7 1.5-1.5 1.5-1.2 0-1.5-1.8-1.5-10.5s.3-10.5 1.5-10.5c1.1 0 1.5-1.2 1.5-4.5s-.4-4.5-1.5-4.5-1.5-1.2-1.5-4.5V45h-4.5c-4.3 0-4.5-.1-4.5-3 0-2.7.3-3 3-3 2 0 3-.5 3-1.5 0-1.2 1.5-1.5 7.5-1.5s7.5.3 7.5 1.5zm-51 24c0 1.1 1.2 1.5 4.5 1.5s4.5.4 4.5 1.5c0 1 1 1.5 3 1.5s3 .5 3 1.5c0 .8.7 1.5 1.5 1.5s1.5.7 1.5 1.5.7 1.5 1.5 1.5c1 0 1.5 1 1.5 3 0 2.7-.3 3-3 3-2 0-3-.5-3-1.5 0-1.2-1.3-1.5-6-1.5s-6-.3-6-1.5c0-1-1-1.5-3-1.5s-3 .5-3 1.5-1 1.5-3 1.5-3 .5-3 1.5c0 .8-.7 1.5-1.5 1.5-1 0-1.5 1-1.5 3s-.5 3-1.5 3c-.8 0-1.5.7-1.5 1.5s-.7 1.5-1.5 1.5c-1.1 0-1.5 1.2-1.5 4.5s-.4 4.5-1.5 4.5c-.8 0-1.5.7-1.5 1.5s.7 1.5 1.5 1.5c1 0 1.5 1 1.5 3s.5 3 1.5 3c.8 0 1.5.7 1.5 1.5s.7 1.5 1.5 1.5 1.5-.7 1.5-1.5c0-1 1-1.5 3-1.5s3-.5 3-1.5c0-.8.7-1.5 1.5-1.5s1.5-.7 1.5-1.5c0-1 1-1.5 3-1.5s3-.5 3-1.5c0-.8.7-1.5 1.5-1.5s1.5-.7 1.5-1.5.7-1.5 1.5-1.5 1.5-.7 1.5-1.5.7-1.5 1.5-1.5 1.5.7 1.5 1.5c0 1.1 1.2 1.5 4.5 1.5s4.5.4 4.5 1.5c0 .8.7 1.5 1.5 1.5s1.5.7 1.5 1.5.7 1.5 1.5 1.5c1 0 1.5 1 1.5 3s.5 3 1.5 3 1.5 1 1.5 3-.5 3-1.5 3c-.8 0-1.5.7-1.5 1.5s-.7 1.5-1.5 1.5-1.5.7-1.5 1.5-.7 1.5-1.5 1.5-1.5.7-1.5 1.5-.7 1.5-1.5 1.5-1.5.7-1.5 1.5c0 1-1 1.5-3 1.5s-3 .5-3 1.5c0 1.2-1.5 1.5-7.5 1.5s-7.5.3-7.5 1.5c0 .8-.7 1.5-1.5 1.5s-1.5.7-1.5 1.5-.7 1.5-1.5 1.5-1.5.7-1.5 1.5-.7 1.5-1.5 1.5c-1.2 0-1.5 1.7-1.5 9s-.3 9-1.5 9c-1 0-1.5 1-1.5 3s-.5 3-1.5 3c-1.1 0-1.5-1.2-1.5-4.5s-.4-4.5-1.5-4.5c-.8 0-1.5-.7-1.5-1.5 0-1.2-1.7-1.5-9-1.5s-9 .3-9 1.5c0 .8-.7 1.5-1.5 1.5-1 0-1.5 1-1.5 3s-.5 3-1.5 3c-.8 0-1.5.7-1.5 1.5s.7 1.5 1.5 1.5 1.5.7 1.5 1.5c0 1.1 1.2 1.5 4.5 1.5 4.3 0 4.5.1 4.5 3 0 2 .5 3 1.5 3 .8 0 1.5.7 1.5 1.5s.7 1.5 1.5 1.5 1.5.7 1.5 1.5.7 1.5 1.5 1.5 1.5.7 1.5 1.5c0 1.3 2.5 1.5 16.5 1.5s16.5.2 16.5 1.5c0 .8.7 1.5 1.5 1.5s1.5.7 1.5 1.5.7 1.5 1.5 1.5c1 0 1.5 1 1.5 3s.5 3 1.5 3c.8 0 1.5.7 1.5 1.5 0 1.1 1.2 1.5 4.5 1.5s4.5.4 4.5 1.5 1.2 1.5 4.5 1.5 4.5.4 4.5 1.5c0 .8.7 1.5 1.5 1.5 1.2 0 1.5 1.7 1.5 9s-.3 9-1.5 9c-1 0-1.5 1-1.5 3s-.5 3-1.5 3c-.8 0-1.5.7-1.5 1.5 0 1-1 1.5-3 1.5s-3 .5-3 1.5c0 .8-.7 1.5-1.5 1.5s-1.5.7-1.5 1.5-.7 1.5-1.5 1.5-1.5.7-1.5 1.5-.7 1.5-1.5 1.5c-1 0-1.5 1-1.5 3s-.5 3-1.5 3c-.8 0-1.5.7-1.5 1.5s-.7 1.5-1.5 1.5-1.5.7-1.5 1.5c0 1-1 1.5-3 1.5s-3-.5-3-1.5c0-1.1-1.2-1.5-4.5-1.5s-4.5-.4-4.5-1.5c0-1-1-1.5-3-1.5-2.9 0-3-.2-3-4.5 0-3.3-.4-4.5-1.5-4.5-1.2 0-1.5-1.3-1.5-6s-.3-6-1.5-6c-1.1 0-1.5-1.2-1.5-4.5s-.4-4.5-1.5-4.5c-1 0-1.5-1-1.5-3s-.5-3-1.5-3c-1.2 0-1.5-1.8-1.5-10.5s-.3-10.5-1.5-10.5c-1 0-1.5-1-1.5-3s-.5-3-1.5-3c-.8 0-1.5-.7-1.5-1.5 0-1-1-1.5-3-1.5s-3-.5-3-1.5c0-1.1-1.2-1.5-4.5-1.5s-4.5-.4-4.5-1.5c0-.8-.7-1.5-1.5-1.5s-1.5-.7-1.5-1.5c0-1-1-1.5-3-1.5s-3-.5-3-1.5c0-.8-.7-1.5-1.5-1.5s-1.5-.7-1.5-1.5-.7-1.5-1.5-1.5-1.5-.7-1.5-1.5-.7-1.5-1.5-1.5c-1 0-1.5-1-1.5-3s-.5-3-1.5-3-1.5-1-1.5-3-.5-3-1.5-3c-1.1 0-1.5-1.2-1.5-4.5s.4-4.5 1.5-4.5c1.2 0 1.5-1.7 1.5-9s.3-9 1.5-9c1.1 0 1.5-1.2 1.5-4.5s.4-4.5 1.5-4.5 1.5-1.2 1.5-4.5.4-4.5 1.5-4.5c1 0 1.5-1 1.5-3s.5-3 1.5-3 1.5-1 1.5-3 .5-3 1.5-3c.8 0 1.5-.7 1.5-1.5s.7-1.5 1.5-1.5c1 0 1.5-1 1.5-3s.5-3 1.5-3c.8 0 1.5-.7 1.5-1.5s.7-1.5 1.5-1.5 1.5-.7 1.5-1.5.7-1.5 1.5-1.5 1.5-.7 1.5-1.5c0-1 1-1.5 3-1.5s3-.5 3-1.5 1-1.5 3-1.5 3-.5 3-1.5c0-1.2 1.3-1.5 6-1.5s6-.3 6-1.5 1.3-1.5 6-1.5 6 .3 6 1.5zm111 0c0 .8.7 1.5 1.5 1.5s1.5.7 1.5 1.5.7 1.5 1.5 1.5 1.5.7 1.5 1.5.7 1.5 1.5 1.5 1.5.7 1.5 1.5.7 1.5 1.5 1.5 1.5.7 1.5 1.5.7 1.5 1.5 1.5 1.5.7 1.5 1.5.7 1.5 1.5 1.5c1 0 1.5 1 1.5 3s.5 3 1.5 3c.8 0 1.5.7 1.5 1.5s.7 1.5 1.5 1.5c1 0 1.5 1 1.5 3s.5 3 1.5 3 1.5 1 1.5 3 .5 3 1.5 3c1.1 0 1.5 1.2 1.5 4.5s.4 4.5 1.5 4.5 1.5 1.2 1.5 4.5.4 4.5 1.5 4.5c1.2 0 1.5 1.7 1.5 9s.3 9 1.5 9 1.5 1.7 1.5 9-.3 9-1.5 9-1.5 1.7-1.5 9-.3 9-1.5 9c-1.1 0-1.5 1.2-1.5 4.5s-.4 4.5-1.5 4.5-1.5 1.2-1.5 4.5-.4 4.5-1.5 4.5c-1 0-1.5 1-1.5 3s-.5 3-1.5 3c-.8 0-1.5.7-1.5 1.5s-.7 1.5-1.5 1.5c-1 0-1.5 1-1.5 3s-.5 3-1.5 3c-.8 0-1.5.7-1.5 1.5s-.7 1.5-1.5 1.5c-1 0-1.5 1-1.5 3s-.5 3-1.5 3c-.8 0-1.5.7-1.5 1.5s-.7 1.5-1.5 1.5-1.5.7-1.5 1.5-.7 1.5-1.5 1.5-1.5.7-1.5 1.5-.7 1.5-1.5 1.5-1.5.7-1.5 1.5-.7 1.5-1.5 1.5-1.5.7-1.5 1.5c0 1-1 1.5-3 1.5s-3 .5-3 1.5c0 .8-.7 1.5-1.5 1.5-1.2 0-1.5-1.3-1.5-6s-.3-6-1.5-6c-1.1 0-1.5-1.2-1.5-4.5s-.4-4.5-1.5-4.5-1.5-1.2-1.5-4.5-.4-4.5-1.5-4.5c-1.2 0-1.5-1.5-1.5-7.5s-.3-7.5-1.5-7.5c-.8 0-1.5-.7-1.5-1.5s-.7-1.5-1.5-1.5-1.5-.7-1.5-1.5c0-1-1-1.5-3-1.5s-3-.5-3-1.5c0-1.1-1.2-1.5-4.5-1.5s-4.5.4-4.5 1.5c0 1.2-1.3 1.5-6 1.5s-6-.3-6-1.5c0-.8-.7-1.5-1.5-1.5s-1.5-.7-1.5-1.5-.7-1.5-1.5-1.5c-1.1 0-1.5-1.2-1.5-4.5s.4-4.5 1.5-4.5c1 0 1.5-1 1.5-3s.5-3 1.5-3c.8 0 1.5-.7 1.5-1.5s.7-1.5 1.5-1.5c1 0 1.5-1 1.5-3s.5-3 1.5-3c1.1 0 1.5-1.2 1.5-4.5s.4-4.5 1.5-4.5 1.5-1.2 1.5-4.5.4-4.5 1.5-4.5c1 0 1.5-1 1.5-3s.5-3 1.5-3c.8 0 1.5-.7 1.5-1.5s.7-1.5 1.5-1.5c1 0 1.5-1 1.5-3s.5-3 1.5-3 1.5-1 1.5-3 .5-3 1.5-3c.8 0 1.5-.7 1.5-1.5 0-1 1-1.5 3-1.5s3-.5 3-1.5c0-.8.7-1.5 1.5-1.5s1.5-.7 1.5-1.5.7-1.5 1.5-1.5 1.5-.7 1.5-1.5.7-1.5 1.5-1.5 1.5-.7 1.5-1.5.7-1.5 1.5-1.5 1.5-.7 1.5-1.5-.7-1.5-1.5-1.5-1.5-.7-1.5-1.5c0-1-1-1.5-3-1.5-2.9 0-3-.2-3-4.5 0-3.3.4-4.5 1.5-4.5 1 0 1.5-1 1.5-3s.5-3 1.5-3c.8 0 1.5-.7 1.5-1.5s.7-1.5 1.5-1.5c1 0 1.5-1 1.5-3s.5-3 1.5-3c.8 0 1.5-.7 1.5-1.5s.7-1.5 1.5-1.5 1.5-.7 1.5-1.5.7-1.5 1.5-1.5 1.5.7 1.5 1.5z"/></svg>